HIERARCHY
ROOT Hips
{
  OFFSET -102.467 93.6631 130.069
  CHANNELS 6 Xposition Yposition Zposition Zrotation Xrotation Yrotation
  JOINT LeftUpLeg
  {
    OFFSET 8.64259 1.95398 -2.38835
    CHANNELS 3 Zrotation Xrotation Yrotation
    JOINT LeftLeg
    {
      OFFSET 43.7702 0 0
      CHANNELS 3 Zrotation Xrotation Yrotation
      JOINT LeftFoot
      {
        OFFSET 40.6238 0 0
        CHANNELS 3 Zrotation Xrotation Yrotation
        JOINT LeftToeBase
        {
          OFFSET 12.7242 0 0
          CHANNELS 3 Zrotation Xrotation Yrotation
          End Site
          {
            OFFSET 0 0 0
          }
        }
      }
    }
  }
  JOINT RightUpLeg
  {
    OFFSET -8.2249 1.95398 -2.59336
    CHANNELS 3 Zrotation Xrotation Yrotation
    JOINT RightLeg
    {
      OFFSET 43.5653 0 0
      CHANNELS 3 Zrotation Xrotation Yrotation
      JOINT RightFoot
      {
        OFFSET 40.6238 0 0
        CHANNELS 3 Zrotation Xrotation Yrotation
        JOINT RightToeBase
        {
          OFFSET 12.7242 0 0
          CHANNELS 3 Zrotation Xrotation Yrotation
          End Site
          {
            OFFSET 0 0 0
          }
        }
      }
    }
  }
  JOINT Spine
  {
    OFFSET 0.165834 0.87714 6.61349
    CHANNELS 3 Zrotation Xrotation Yrotation
    JOINT Spine1
    {
      OFFSET 7.38963 1.71661e-005 0
      CHANNELS 3 Zrotation Xrotation Yrotation
      JOINT Spine2
      {
        OFFSET 11.9445 1.14441e-005 0
        CHANNELS 3 Zrotation Xrotation Yrotation
        JOINT Spine3
        {
          OFFSET 14.7254 4.19617e-005 0
          CHANNELS 3 Zrotation Xrotation Yrotation
          JOINT Spine4
          {
            OFFSET 10.9679 0 0
            CHANNELS 3 Zrotation Xrotation Yrotation
            JOINT RightShoulder
            {
              OFFSET 2.46616 -1.6653 3.69651
              CHANNELS 3 Zrotation Xrotation Yrotation
              JOINT RightArm
              {
                OFFSET 13.0012 0 0
                CHANNELS 3 Zrotation Xrotation Yrotation
                JOINT RightForeArm
                {
                  OFFSET 28.7848 1.52588e-005 0
                  CHANNELS 3 Zrotation Xrotation Yrotation
                  JOINT RightHand
                  {
                    OFFSET 26.5688 1.52588e-005 0
                    CHANNELS 3 Zrotation Xrotation Yrotation
                    End Site
                    {
                      OFFSET 0 0 0
                    }
                  }
                }
              }
            }
            JOINT LeftShoulder
            {
              OFFSET 2.38034 -1.29275 -3.7523
              CHANNELS 3 Zrotation Xrotation Yrotation
              JOINT LeftArm
              {
                OFFSET 16.3182 6.10351e-005 0
                CHANNELS 3 Zrotation Xrotation Yrotation
                JOINT LeftForeArm
                {
                  OFFSET 27.0901 0 0
                  CHANNELS 3 Zrotation Xrotation Yrotation
                  JOINT LeftHand
                  {
                    OFFSET 24.5451 1.52588e-005 0
                    CHANNELS 3 Zrotation Xrotation Yrotation
                    End Site
                    {
                      OFFSET 0 0 0
                    }
                  }
                }
              }
            }
            JOINT Neck
            {
              OFFSET 5.0226 -0.0266342 0
              CHANNELS 3 Zrotation Xrotation Yrotation
              JOINT Head
              {
                OFFSET 6.69363 2.86102e-005 0
                CHANNELS 3 Zrotation Xrotation Yrotation
                End Site
                {
                  OFFSET 0 0 0
                }
              }
            }
          }
        }
      }
    }
  }
}
MOTION
Frames:	6
Frame Time:	0.0416667
-268.376 71.7036 -274.361 93.0638 6.70494 92.9944 175.08 50.9596 81.4257 -40.9604 -62.5776 60.9301 -25.5893 -13.957 -140.432 -49.1397 -6.39223 23.3594 128.856 -1.5042 95.4692 -90.5536 12.4161 -4.69743 157.453 -35.3502 25.5508 -16.4184 -33.0203 132.352 -4.21834 5.29328 -89.7157 16.4082 -8.17679 1.94286 4.76109 -8.08334 2.30302 -17.9824 -8.38006 -0.621939 2.03027 -8.38002 -0.62194 130.142 -18.2226 -17.4528 28.1326 -54.9015 -48.795 -96.6688 -75.9762 -99.5288 -43.7009 20.6359 -54.6645 -48.0812 -36.334 148.152 -126.173 83.4621 129.919 55.1801 -25.8754 -72.6978 41.1804 -19.2246 -50.1304 85.9555 3.76241 10.5666 40.174 -17.8754 -33.7138 
-268.987 71.3404 -274.9 92.8364 7.02557 93.2099 175.11 50.749 81.0207 -39.6877 -61.8132 63.8265 -25.0391 -14.6922 -142.487 -48.8283 -5.7494 22.5095 128.476 -1.88018 95.7651 -90.2002 13.6194 -4.83506 158.086 -33.6861 26.3955 -17.3219 -34.2031 132.324 -4.2579 5.27731 -89.744 16.4409 -8.26848 1.90482 4.79447 -8.17662 2.26915 -17.9536 -8.45598 -0.686337 2.05901 -8.45595 -0.686336 130.076 -18.1312 -17.485 28.3136 -54.8192 -48.4998 -82.6279 -76.1513 -86.0709 -43.644 21.5143 -56.6011 -48.0414 -36.3572 148.2 -85.2233 85.6023 88.43 53.6981 -22.2227 -75.8115 42.1777 -20.0555 -50.8808 85.973 3.73604 10.5116 40.1448 -17.8282 -33.7415 
-270.768 70.3035 -276.451 92.184 7.9259 93.8307 175.542 49.3683 78.9741 -33.1261 -58.9924 74.7044 -24.024 -17.0047 -148.354 -47.6915 -3.64447 19.6837 127.467 -2.93227 96.557 -89.2598 16.8668 -5.21361 159.688 -28.6335 28.7424 -20.5656 -37.9164 131.52 -4.36956 5.23222 -89.8244 16.5332 -8.52778 1.7965 4.88865 -8.44042 2.17261 -17.8728 -8.67045 -0.869243 2.1399 -8.67045 -0.869252 129.892 -17.8726 -17.5765 28.7844 -54.6016 -47.6643 -48.8596 -72.6901 -53.9827 -42.4633 23.6176 -62.4734 -47.9275 -36.4243 148.338 -10.6999 77.7658 12.3215 51.3157 -12.5856 -85.288 45.1991 -22.409 -52.5944 86.0214 3.66121 10.3546 40.0645 -17.6937 -33.8175 
-273.66 68.7034 -278.882 91.1553 9.2841 94.8136 176.1 45.4525 75.802 -20.5688 -52.759 92.6564 -21.9562 -22.1541 -156.549 -44.1898 0.482769 13.7849 126.137 -4.44806 97.6085 -87.9898 22.5582 -5.79058 161.689 -17.9618 32.782 -29.4884 -44.942 126.232 -4.5398 5.16312 -89.9495 16.6743 -8.92454 1.62769 5.03272 -8.84419 2.02185 -17.7495 -8.9977 -1.15218 2.26318 -8.9977 -1.15218 129.606 -17.472 -17.7181 29.4024 -54.3066 -46.3806 -24.9852 -62.4291 -32.6422 -38.5282 25.3664 -71.6023 -47.7486 -36.5313 148.554 -0.549744 61.1625 -0.429379 52.6355 4.48797 -94.4443 50.534 -25.9693 -53.9444 86.0934 3.54509 10.1095 39.9454 -17.4836 -33.9301 
-277.607 66.7556 -281.821 89.8043 10.9509 96.112 170.617 44.4749 82.7607 -14.3622 -52.7138 103.572 -6.2833 -34.7749 -161.481 -31.7576 5.55834 3.73645 125.014 -5.85118 98.2119 -87.9549 24.9175 -6.19403 160.81 -0.134518 38.2696 -71.2523 -53.5514 88.3794 -4.75235 5.0757 -90.1112 16.8521 -9.42268 1.40843 5.21442 -9.35146 1.82534 -17.5947 -9.40633 -1.51463 2.41799 -9.40633 -1.51464 129.24 -16.9544 -17.8998 30.001 -54.0124 -44.7468 -14.0103 -49.8729 -24.6274 -32.4407 25.2482 -81.4593 -47.5136 -36.6747 148.834 0.0778775 42.0894 -4.67965 61.0422 18.8589 -112.456 58.5193 -30.0777 -53.3826 86.1813 3.39533 9.7899 39.7991 -17.2089 -34.0682 
-282.137 64.379 -283.844 88.19 12.7703 97.6761 161.03 41.0553 95.7739 -3.54072 -52.7768 116.838 32.0751 -58.167 -147.551 -0.689108 4.01179 -1.46053 125.017 -3.21768 96.5129 -90.7853 23.2883 -6.12187 113.447 40.2526 70.4601 -129.505 49.6907 5.44437 -4.9902 4.97572 -90.3013 17.0543 -9.98468 1.14824 5.42116 -9.92439 1.59091 -17.4192 -9.86343 -1.93613 2.59343 -9.86345 -1.93612 128.809 -16.3434 -18.112 30.4177 -53.8151 -42.8469 -8.65897 -38.6881 -22.3609 -26.328 23.4322 -89.6959 -47.2307 -36.8516 149.167 -2.10674 23.2808 -7.1818 77.9283 27.9338 -136.209 69.0683 -33.6665 -49.9169 86.2783 3.21996 9.40935 39.6364 -16.8799 -34.2226 
